<?xml version="1.0" standalone="no"?>
<!DOCTYPE svg PUBLIC "-//W3C//DTD SVG 20010904//EN"
 "http://www.w3.org/TR/2001/REC-SVG-20010904/DTD/svg10.dtd">
<svg version="1.0" xmlns="http://www.w3.org/2000/svg"
 width="70.000000pt" height="35.000000pt" viewBox="0 0 70.000000 35.000000"
 preserveAspectRatio="xMidYMid meet">

<g transform="translate(0.000000,35.000000) scale(0.100000,-0.100000)"
fill="#000000" stroke="none">
<path d="M30 176 c0 -138 1 -146 20 -146 18 0 20 8 22 101 l3 101 79 -101 c43
-56 85 -101 92 -101 11 0 14 29 14 145 0 137 -1 145 -20 145 -18 0 -20 -8 -22
-100 l-3 -99 -75 97 c-107 138 -110 137 -110 -42z"/>
<path d="M280 303 c0 -4 19 -69 42 -145 38 -124 45 -138 65 -138 20 0 26 12
55 105 18 58 35 102 39 97 3 -4 21 -51 39 -105 28 -86 35 -98 53 -95 18 3 28
25 64 138 24 74 43 138 43 143 0 4 -11 7 -24 7 -21 0 -26 -9 -51 -100 -16 -55
-31 -100 -35 -100 -3 0 -20 45 -39 100 -26 80 -36 100 -51 100 -16 0 -25 -20
-51 -105 -18 -58 -35 -102 -39 -98 -4 5 -12 26 -18 48 -42 155 -42 155 -68
155 -13 0 -24 -3 -24 -7z"/>
</g>
</svg>
