<?xml version="1.0" standalone="no"?>
<!DOCTYPE svg PUBLIC "-//W3C//DTD SVG 20010904//EN"
 "http://www.w3.org/TR/2001/REC-SVG-20010904/DTD/svg10.dtd">
<svg version="1.0" xmlns="http://www.w3.org/2000/svg"
 width="266.000000pt" height="38.000000pt" viewBox="0 0 266.000000 38.000000"
 preserveAspectRatio="xMidYMid meet">

<g transform="translate(0.000000,38.000000) scale(0.100000,-0.100000)"
fill="#e50914" stroke="none">
<path d="M50 206 c0 -138 1 -146 20 -146 18 0 20 8 22 101 l3 101 79 -101
c111 -142 116 -140 116 44 l0 145 -25 0 c-24 0 -24 -1 -27 -100 l-3 -99 -75
97 c-107 138 -110 137 -110 -42z"/>
<path d="M350 205 l0 -145 90 0 c83 0 90 1 90 20 0 18 -7 20 -65 20 l-65 0 0
45 0 45 50 0 c43 0 50 3 50 20 0 17 -7 20 -50 20 l-50 0 0 40 0 40 65 0 c58 0
65 2 65 20 0 19 -7 20 -90 20 l-90 0 0 -145z"/>
<path d="M560 330 c0 -17 7 -20 40 -20 l40 0 0 -125 0 -125 25 0 25 0 0 125 0
125 45 0 c38 0 45 3 45 20 0 19 -7 20 -110 20 -103 0 -110 -1 -110 -20z"/>
<path d="M820 205 l0 -145 25 0 c24 0 25 3 25 60 l0 60 50 0 c43 0 50 3 50 20
0 17 -7 20 -50 20 l-50 0 0 45 0 45 60 0 c53 0 60 2 60 20 0 18 -7 20 -85 20
l-85 0 0 -145z"/>
<path d="M1040 205 l0 -145 85 0 c78 0 85 2 85 20 0 18 -7 20 -60 20 l-60 0 0
125 0 125 -25 0 -25 0 0 -145z"/>
<path d="M1250 205 l0 -145 25 0 25 0 0 145 0 145 -25 0 -25 0 0 -145z"/>
<path d="M1360 345 c0 -2 16 -29 35 -60 20 -30 38 -61 41 -69 3 -8 -15 -46
-40 -85 -46 -70 -46 -71 -21 -71 20 0 34 13 64 61 l39 62 24 -39 c14 -22 30
-49 37 -61 8 -16 21 -23 41 -23 l30 0 -45 69 c-25 38 -45 75 -45 81 0 6 18 38
40 70 22 32 40 61 40 64 0 4 -10 6 -22 6 -17 0 -33 -15 -58 -55 -19 -30 -37
-55 -40 -55 -3 0 -20 25 -38 55 -26 43 -39 55 -58 55 -13 0 -24 -2 -24 -5z"/>
<path d="M1700 343 c0 -4 19 -69 42 -145 38 -124 45 -138 65 -138 20 0 26 12
55 105 18 58 35 102 39 97 3 -4 21 -51 39 -105 28 -86 35 -98 53 -95 18 3 28
25 64 138 24 74 43 138 43 143 0 4 -11 7 -24 7 -21 0 -26 -9 -51 -100 -16 -55
-31 -100 -35 -100 -3 0 -20 45 -39 100 -26 80 -36 100 -51 100 -16 0 -25 -20
-51 -105 -18 -58 -35 -102 -39 -98 -4 5 -12 26 -18 48 -42 155 -42 155 -68
155 -13 0 -24 -3 -24 -7z"/>
<path d="M2150 205 l0 -145 25 0 25 0 0 145 0 145 -25 0 -25 0 0 -145z"/>
<path d="M2270 205 l0 -145 25 0 c24 0 25 2 25 65 0 57 2 65 19 65 12 0 37
-24 67 -65 35 -47 54 -65 71 -65 13 0 23 2 23 6 0 3 -24 38 -54 78 l-54 74 55
66 55 66 -29 0 c-22 0 -37 -12 -73 -58 -25 -31 -53 -58 -63 -60 -15 -3 -17 5
-17 57 0 58 -1 61 -25 61 l-25 0 0 -145z"/>
<path d="M2550 205 l0 -145 25 0 25 0 0 145 0 145 -25 0 -25 0 0 -145z"/>
</g>
</svg>
